# xmcd
#
# Track frame offsets: 
#        150
#        12370
#        24790
#        42457
#        52255
#        63515
#        75715
#        87957
#        100880
#        113037
#        129447
#        143480
#        158172
#        172325
#        188950
#        205595
#        218862
#        233057
#        246690
#        260132
#        268980
#        282592
#        294020
#        303415
#        318415
#
# Disc length: 4414 seconds
#
# Revision: 0
# Processed by: cddbd v1.5.2PL0 Copyright (c) Steve Scherf et al.
# Submitted via: ExactAudioCopy v0.99pb4
#
DISCID=77113c19
DTITLE=Various Artist - Masters Box Disc 4
DYEAR=1995
DGENRE=Country
TTITLE0=Merle Haggard- Everybody's Had the Blues
TTITLE1=Merle Haggard- If We Make it Through December
TTITLE2=Merle Haggard- I Think I'll Just Stay Here and Drink
TTITLE3=Merle Haggard- Mama Tried
TTITLE4=Merle Haggard- My Friends are Gonna be Strangers
TTITLE5=Merle Haggard- Okie From Muskogee
TTITLE6=Merle Haggard- The Bottle Let Me Down
TTITLE7=Merle Haggard- The Fightin' Side of Me
TTITLE8=Merle Haggard- Workin' Man Blues
TTITLE9=Merle Haggard- Hungry Eyes
TTITLE10=Lee Greenwood- Dixie Road
TTITLE11=Lee Greenwood- God Bless the USA
TTITLE12=Lee Greenwood- I.O.U.
TTITLE13=Lee Greenwood- Ring on Her Finger, Time on Her Hand
TTITLE14=Lee Greenwood- Somebody's Gonna Love You
TTITLE15=T. Graham Brown- Brilliant Conversationalist
TTITLE16=T. Graham Brown- Hell and High Water
TTITLE17=T. Graham Brown- I Tell it Like it Used to Be
TTITLE18=T. Graham Brown- I Wish that I Could Hurt That Way Again
TTITLE19=Sandy Posey- Born a Woman
TTITLE20=Mel McDaniel- Baby's Got Her Blue Jeans On
TTITLE21=Mel McDaniel- Stand Up
TTITLE22=Boots Randolf- Yakety Sax
TTITLE23=The Jordanaires- Swing Low Sweet Chariot
TTITLE24=The Jordanaires- Love Lifted Me
EXTD=
EXTT0=
EXTT1=
EXTT2=
EXTT3=
EXTT4=
EXTT5=
EXTT6=
EXTT7=
EXTT8=
EXTT9=
EXTT10=
EXTT11=
EXTT12=
EXTT13=
EXTT14=
EXTT15=
EXTT16=
EXTT17=
EXTT18=
EXTT19=
EXTT20=
EXTT21=
EXTT22=
EXTT23=
EXTT24=
PLAYORDER=
